<svg aria-hidden="true" style="position: absolute; width: 0; height: 0; overflow: hidden;" version="1.1" xmlns="http://www.w3.org/2000/svg" xmlns:xlink="http://www.w3.org/1999/xlink">
<defs>
<symbol id="icon-discord" viewBox="0 0 32 32">
<path d="M26.963 0c1.875 0 3.387 1.516 3.476 3.3v28.7l-3.569-3.031-1.96-1.784-2.139-1.864 0.893 2.94h-18.717c-1.869 0-3.387-1.42-3.387-3.301v-21.653c0-1.784 1.52-3.303 3.393-3.303h22zM18.805 7.577h-0.040l-0.269 0.267c2.764 0.8 4.101 2.049 4.101 2.049-1.781-0.891-3.387-1.336-4.992-1.516-1.16-0.18-2.32-0.085-3.3 0h-0.267c-0.627 0-1.96 0.267-3.747 0.98-0.623 0.271-0.98 0.448-0.98 0.448s1.336-1.336 4.28-2.049l-0.18-0.18c0 0-2.229-0.085-4.636 1.693 0 0-2.407 4.192-2.407 9.36 0 0 1.333 2.32 4.991 2.408 0 0 0.533-0.711 1.073-1.336-2.053-0.624-2.853-1.872-2.853-1.872s0.179 0.088 0.447 0.267h0.080c0.040 0 0.059 0.020 0.080 0.040v0.008c0.021 0.021 0.040 0.040 0.080 0.040 0.44 0.181 0.88 0.36 1.24 0.533 0.621 0.269 1.42 0.537 2.4 0.715 1.24 0.18 2.661 0.267 4.28 0 0.8-0.18 1.6-0.356 2.4-0.713 0.52-0.267 1.16-0.533 1.863-0.983 0 0-0.8 1.248-2.94 1.872 0.44 0.621 1.060 1.333 1.060 1.333 3.659-0.080 5.080-2.4 5.16-2.301 0-5.16-2.42-9.36-2.42-9.36-2.18-1.619-4.22-1.68-4.58-1.68zM19.029 13.461c0.937 0 1.693 0.8 1.693 1.78 0 0.987-0.76 1.787-1.693 1.787s-1.693-0.8-1.693-1.779c0.003-0.987 0.764-1.784 1.693-1.788zM12.972 13.461c0.933 0 1.688 0.8 1.688 1.78 0 0.987-0.76 1.787-1.693 1.787s-1.693-0.8-1.693-1.779c0-0.987 0.76-1.784 1.699-1.788z"></path>
</symbol>

<symbol id="icon-telegram" viewBox="0 0 32 32">
<path d="M16 0c-8.838 0-16 7.162-16 16s7.162 16 16 16 16-7.163 16-16-7.163-16-16-16zM23.863 10.969l-2.625 12.369c-0.181 0.881-0.712 1.087-1.45 0.681l-4-2.956-1.919 1.869c-0.225 0.219-0.4 0.4-0.8 0.4-0.519 0-0.431-0.194-0.606-0.688l-1.363-4.475-3.956-1.231c-0.856-0.262-0.862-0.85 0.194-1.269l15.412-5.95c0.7-0.319 1.381 0.169 1.113 1.25z"></path>
</symbol>

<symbol id="icon-cat" viewBox="0 0 42 32">
<path d="M33.736 15.236c-0-0.001-0-0.002-0-0.003v-0.004c0 0.002 0 0.004 0 0.007z"></path>
<path d="M33.736 15.233v-0.004c0 0.002 0 0.004 0 0.007-0-0.001-0-0.002-0-0.003z"></path>
<path d="M41.727 29.262c-0.002 0.037-0.008 0.074-0.013 0.111-0.007 0.036-0.015 0.079-0.023 0.111-0.017 0.069-0.037 0.141-0.060 0.209-0.047 0.138-0.109 0.276-0.201 0.401-0.091 0.124-0.221 0.236-0.377 0.291-0.156 0.057-0.322 0.055-0.47 0.026-0.046-0.009-0.067-0.015-0.109-0.026-0.039-0.011-0.075-0.023-0.111-0.038-0.072-0.029-0.144-0.069-0.208-0.122s-0.117-0.119-0.158-0.189c-0.041-0.070-0.068-0.143-0.090-0.214-0.043-0.143-0.065-0.28-0.095-0.411-0.015-0.066-0.031-0.13-0.050-0.192-0.018-0.061-0.043-0.125-0.066-0.191-0.023-0.064-0.048-0.126-0.072-0.189l-0.079-0.188c-0.108-0.25-0.229-0.495-0.357-0.736-0.256-0.482-0.542-0.952-0.869-1.387-0.082-0.11-0.166-0.213-0.259-0.306-0.094-0.094-0.196-0.18-0.305-0.259-0.217-0.157-0.458-0.284-0.708-0.389-0.501-0.212-1.038-0.337-1.57-0.483-0.133-0.037-0.265-0.073-0.399-0.106s-0.267-0.064-0.401-0.094c-0.269-0.061-0.539-0.121-0.805-0.201l-0.199-0.064c-0.064-0.023-0.13-0.049-0.193-0.079-0.126-0.058-0.248-0.124-0.369-0.19-0.19-0.104-0.382-0.209-0.589-0.276-0.030 0.101-0.056 0.204-0.080 0.306-0.060 0.262-0.103 0.525-0.103 0.787s0.042 0.517 0.145 0.754c0.101 0.226 0.276 0.441 0.427 0.678 0.076 0.119 0.148 0.247 0.2 0.387 0.051 0.136 0.081 0.284 0.081 0.432 0.004 0.025 0.007 0.050 0.007 0.076-0.001 0.031-0.004 0.063-0.012 0.094s-0.020 0.060-0.035 0.087c-0.013 0.023-0.027 0.043-0.043 0.063-0.307 0.444-0.638 0.863-0.988 1.268-0.352 0.404-0.725 0.791-1.131 1.146-0.406 0.353-0.845 0.678-1.339 0.917-0.248 0.117-0.511 0.212-0.787 0.259-0.034 0.007-0.069 0.012-0.104 0.015s-0.070 0.008-0.105 0.010-0.144 0.006-0.206 0.007c-0.126 0.004-0.261 0.013-0.393 0.021-0.266 0.015-0.535 0.030-0.809 0.018-0.138-0.008-0.276-0.017-0.427-0.064-0.038-0.012-0.076-0.028-0.117-0.053l-0.015-0.010-0.007-0.005c0.001 0.001-0.010-0.007-0.011-0.008l-0.019-0.016c-0.011-0.009-0.029-0.025-0.045-0.041-0.061-0.061-0.106-0.132-0.135-0.212-0.059-0.159-0.043-0.327 0.004-0.471 0.048-0.145 0.128-0.274 0.226-0.384 0.1-0.111 0.215-0.201 0.355-0.269 0.075-0.036 0.16-0.053 0.236-0.057 0.077-0.005 0.149 0 0.218 0.006 0.136 0.013 0.263 0.031 0.369 0.015 0.013-0.002 0.026-0.004 0.038-0.007 0.006-0.002 0.013-0.003 0.018-0.005l0.014-0.004c0.001-0.001 0.001-0.001 0.002-0.001 0.014-0.006 0.033-0.012 0.043-0.017s0.020-0.009 0.032-0.016c0.046-0.025 0.088-0.058 0.13-0.101s0.085-0.091 0.134-0.142c0.024-0.025 0.049-0.051 0.076-0.076s0.056-0.049 0.081-0.070c0.103-0.085 0.204-0.169 0.304-0.255 0.2-0.171 0.396-0.348 0.581-0.532 0.093-0.092 0.182-0.187 0.27-0.284 0.084-0.095 0.167-0.195 0.212-0.293s0.043-0.179-0.006-0.282c-0.048-0.101-0.128-0.203-0.21-0.302-0.041-0.049-0.085-0.101-0.127-0.146-0.045-0.048-0.090-0.099-0.135-0.146-0.089-0.092-0.183-0.183-0.279-0.273-0.192-0.18-0.392-0.354-0.589-0.535s-0.389-0.366-0.581-0.549c-0.382-0.365-0.769-0.724-1.239-0.918-0.233-0.099-0.483-0.159-0.738-0.192-0.129-0.018-0.254-0.024-0.39-0.032-0.131-0.007-0.268-0.019-0.403-0.034-0.536-0.059-1.061-0.172-1.58-0.277-0.26-0.053-0.519-0.103-0.779-0.144l-0.195-0.029-0.194-0.024-0.198-0.020-0.196-0.016c-0.525-0.040-1.057-0.053-1.591-0.090-0.473-0.034-0.95-0.084-1.419-0.196-0.052 0.199-0.086 0.402-0.104 0.607-0.028 0.322-0.014 0.648 0.028 0.971 0.084 0.647 0.28 1.28 0.484 1.91l0.077 0.238c0.025 0.082 0.047 0.164 0.068 0.246 0.042 0.164 0.077 0.329 0.108 0.494 0.061 0.331 0.103 0.666 0.119 1.004 0.014 0.338 0.005 0.681-0.071 1.021-0.039 0.169-0.096 0.339-0.189 0.496-0.047 0.078-0.104 0.152-0.171 0.218-0.065 0.063-0.141 0.117-0.223 0.157l-0.197 0.135-0.034 0c-0.14 0.001-0.292 0.031-0.443 0.062s-0.306 0.067-0.466 0.093c-0.16 0.025-0.326 0.043-0.5 0.020-0.087-0.012-0.176-0.036-0.259-0.081s-0.157-0.11-0.211-0.186c-0.015-0.019-0.026-0.038-0.038-0.058l-0.017-0.030-0.014-0.031-0.012-0.027c-0.004-0.009-0.009-0.023-0.013-0.034-0.009-0.023-0.017-0.047-0.021-0.069-0.023-0.091-0.025-0.192-0.001-0.285s0.071-0.176 0.125-0.246c0.054-0.071 0.116-0.131 0.179-0.185 0.128-0.108 0.264-0.194 0.4-0.277 0.112-0.069 0.224-0.134 0.328-0.203-0.062-0.192-0.118-0.384-0.174-0.576l-0.192-0.649c-0.131-0.431-0.271-0.859-0.434-1.276s-0.35-0.825-0.587-1.198c-0.119-0.186-0.252-0.362-0.405-0.514s-0.328-0.279-0.523-0.353l-0.009-0.003-0.008-0.005c-0.307-0.184-0.616-0.365-0.947-0.464-0.166-0.050-0.342-0.084-0.519-0.123l-0.131-0.027c-0.042-0.008-0.085-0.015-0.127-0.021-0.084-0.010-0.164-0.015-0.235 0.003-0.071 0.016-0.145 0.055-0.225 0.098s-0.16 0.086-0.243 0.127c-0.021 0.010-0.040 0.020-0.063 0.031l-0.062 0.028c-0.044 0.019-0.088 0.037-0.132 0.053-0.088 0.032-0.177 0.061-0.266 0.085-0.358 0.097-0.721 0.136-1.070 0.205-0.175 0.034-0.346 0.076-0.511 0.133-0.082 0.029-0.164 0.061-0.242 0.098-0.020 0.009-0.039 0.019-0.058 0.029l-0.028 0.014-0.030 0.016-0.119 0.065c-0.151 0.088-0.3 0.185-0.444 0.289-0.144 0.105-0.284 0.216-0.421 0.33-0.274 0.23-0.539 0.474-0.808 0.716-0.135 0.121-0.27 0.24-0.411 0.359-0.137 0.113-0.288 0.228-0.44 0.328-0.304 0.205-0.625 0.378-0.944 0.547s-0.636 0.337-0.937 0.529c-0.149 0.098-0.295 0.197-0.433 0.309s-0.272 0.231-0.406 0.351c-0.267 0.241-0.531 0.488-0.804 0.727s-0.552 0.471-0.849 0.683c-0.297 0.211-0.612 0.404-0.957 0.54-0.173 0.067-0.354 0.118-0.541 0.139s-0.381 0.012-0.565-0.040c-0.184-0.051-0.355-0.143-0.503-0.261s-0.273-0.259-0.382-0.409l-0.002-0.003-0.002-0.003c-0.040-0.070-0.061-0.154-0.055-0.234s0.031-0.155 0.066-0.221c0.071-0.132 0.174-0.236 0.287-0.322s0.239-0.156 0.381-0.196c0.134-0.034 0.261-0.065 0.387-0.105s0.247-0.088 0.359-0.152c0.112-0.063 0.215-0.144 0.315-0.231s0.196-0.18 0.291-0.275l0.29-0.282c0.193-0.188 0.387-0.376 0.584-0.56l1.178-1.109c0.195-0.186 0.392-0.369 0.583-0.559 0.382-0.378 0.749-0.771 1.078-1.194 0.164-0.212 0.318-0.431 0.454-0.661 0.034-0.057 0.068-0.115 0.098-0.174l0.047-0.088 0.042-0.090c0.014-0.029 0.029-0.062 0.041-0.089 0.012-0.031 0.025-0.063 0.036-0.094 0.009-0.031 0.018-0.061 0.027-0.092 0.007-0.032 0.015-0.063 0.021-0.096 0.048-0.258 0.035-0.528 0.049-0.8 0.007-0.136 0.022-0.274 0.053-0.409 0.035-0.135 0.074-0.261 0.11-0.391l0.055-0.194 0.097-0.39 0.041-0.197c0.029-0.131 0.048-0.263 0.070-0.395 0.007-0.066 0.015-0.132 0.020-0.199l0.005-0.099c0-0.025 0-0.051-0.001-0.075-0.096-0.054-0.197-0.105-0.299-0.15-0.108-0.049-0.219-0.093-0.331-0.131s-0.227-0.069-0.343-0.091c-0.116-0.021-0.233-0.033-0.349-0.026-0.058 0.004-0.115 0.011-0.171 0.026-0.059 0.014-0.115 0.032-0.177 0.042-0.121 0.024-0.242 0.037-0.364 0.039-0.244 0.006-0.484-0.020-0.722-0.032-0.119-0.006-0.238-0.008-0.357-0.002s-0.24 0.015-0.361 0.014c-0.242-0-0.487-0.024-0.72-0.1-0.116-0.037-0.228-0.087-0.334-0.148s-0.205-0.131-0.3-0.206c-0.189-0.152-0.361-0.321-0.532-0.489l-0.044-0.043h0.036c-0.008-0.117 0.006-0.233 0.031-0.346 0.027-0.122 0.064-0.239 0.102-0.356s0.075-0.233 0.104-0.352c0.029-0.119 0.045-0.238 0.049-0.36 0.012-0.245 0.024-0.494 0.095-0.733 0.070-0.24 0.202-0.455 0.352-0.65 0.074-0.099 0.162-0.187 0.251-0.272l0.269-0.252c0.089-0.084 0.176-0.17 0.256-0.263s0.151-0.194 0.19-0.308c0.039-0.116 0.048-0.24 0.020-0.358s-0.085-0.228-0.143-0.335c-0.059-0.108-0.119-0.216-0.154-0.335s-0.042-0.246-0.016-0.367l0.002-0.009 0.007 0.007 0.070 0.073 0 0 0 0c0.015 0.022 0.030 0.043 0.047 0.062s0.037 0.037 0.057 0.054c0.021 0.016 0.042 0.032 0.064 0.046s0.045 0.026 0.069 0.038c0.095 0.046 0.197 0.074 0.298 0.102s0.204 0.054 0.302 0.096c0.048 0.021 0.095 0.046 0.138 0.076 0.009 0.006 0.017 0.013 0.025 0.020-0.006-0.008-0.013-0.016-0.019-0.024-0.054-0.070-0.105-0.143-0.15-0.22-0.054-0.092-0.099-0.19-0.124-0.294s-0.027-0.215 0.007-0.317c0.033-0.103 0.097-0.193 0.173-0.268l0.003-0.003 0.065 0.045 0.031 0.022 0.015 0.011 0.001 0.001 0.001 0.001c0 0.001 0.001-0.001 0.002 0.004-0.001 0.003-0.001 0.004-0.002 0.005 0.196 0.247 0.441 0.452 0.706 0.621 0.271 0.173 0.567 0.308 0.874 0.402s0.627 0.147 0.948 0.158c0.322 0.004 0.646 0.019 0.967 0.050 0.643 0.060 1.281 0.164 1.924 0.211 0.161 0.010 0.321 0.019 0.482 0.021 0.161 0.004 0.321 0.001 0.479-0.020 0.318-0.039 0.627-0.131 0.93-0.238s0.604-0.228 0.915-0.321c0.311-0.093 0.634-0.157 0.962-0.155 0.652 0.003 1.289 0.143 1.927 0.212 0.319 0.034 0.64 0.046 0.958 0.015 0.159-0.015 0.316-0.041 0.471-0.078 0.154-0.038 0.312-0.081 0.467-0.122 0.626-0.163 1.256-0.307 1.89-0.431 1.268-0.249 2.554-0.421 3.847-0.476 0.324-0.012 0.646-0.021 0.971-0.017 0.161 0.003 0.322 0.003 0.485 0.011 0.162 0.006 0.324 0.013 0.485 0.024 0.646 0.039 1.289 0.101 1.931 0.147 0.64 0.042 1.288 0.085 1.916-0.010 0.157-0.023 0.311-0.059 0.464-0.101 0.151-0.047 0.301-0.098 0.444-0.164 0.289-0.129 0.562-0.295 0.821-0.481 0.521-0.377 1.028-0.778 1.564-1.145 0.268-0.183 0.543-0.358 0.828-0.516 0.071-0.040 0.143-0.077 0.215-0.116l0.219-0.109 0.222-0.102 0.221-0.097c0.295-0.13 0.59-0.259 0.872-0.406 0.281-0.149 0.549-0.319 0.786-0.527s0.443-0.449 0.622-0.711c0.18-0.259 0.313-0.543 0.387-0.847s0.089-0.62 0.064-0.934c-0.026-0.315-0.089-0.627-0.167-0.937-0.156-0.621-0.371-1.233-0.495-1.877-0.061-0.321-0.099-0.651-0.084-0.984s0.083-0.665 0.213-0.974c0.063-0.154 0.145-0.304 0.231-0.441 0.087-0.142 0.18-0.276 0.282-0.407 0.202-0.261 0.439-0.5 0.71-0.694 0.27-0.196 0.574-0.344 0.892-0.443s0.651-0.144 0.977-0.162c0.089-0.003 0.177-0.001 0.269 0.020 0.091 0.021 0.188 0.063 0.262 0.142s0.111 0.182 0.122 0.276c0.011 0.095 0.003 0.186-0.012 0.272-0.032 0.173-0.093 0.33-0.162 0.482s-0.15 0.296-0.236 0.437c-0.087 0.14-0.18 0.276-0.283 0.408-0.026 0.033-0.053 0.065-0.081 0.097s-0.061 0.066-0.089 0.092c-0.059 0.057-0.111 0.111-0.164 0.17-0.21 0.231-0.384 0.491-0.453 0.784-0.071 0.292-0.041 0.606 0.017 0.916 0.029 0.156 0.066 0.309 0.105 0.467 0.038 0.155 0.075 0.317 0.106 0.477 0.063 0.32 0.11 0.644 0.135 0.971 0.024 0.327 0.027 0.655 0.005 0.983-0.045 0.655-0.201 1.305-0.468 1.907-0.264 0.603-0.636 1.154-1.065 1.647-0.109 0.123-0.215 0.244-0.339 0.36-0.12 0.114-0.244 0.219-0.368 0.324l-0.746 0.618c-0.493 0.412-0.971 0.841-1.39 1.32-0.417 0.477-0.778 1.011-0.975 1.605l-0.004 0.013-0.007 0.012c-0.019 0.031-0.032 0.071-0.039 0.116 0.017 0.034 0.037 0.068 0.057 0.101 0.053 0.086 0.11 0.17 0.169 0.251 0.119 0.164 0.245 0.323 0.37 0.482s0.252 0.318 0.375 0.479c0.061 0.081 0.122 0.163 0.179 0.248 0.029 0.043 0.056 0.086 0.081 0.133l0.069 0.137c0.18 0.369 0.306 0.76 0.414 1.152 0.054 0.196 0.102 0.394 0.152 0.59s0.1 0.391 0.157 0.584l0.021 0.072c0.006 0.021 0.016 0.047 0.023 0.071l0.024 0.072 0.026 0.068c0.035 0.091 0.076 0.182 0.12 0.271 0.088 0.178 0.192 0.348 0.306 0.511 0.229 0.326 0.5 0.623 0.795 0.892s0.615 0.512 0.952 0.725c0.337 0.213 0.693 0.398 1.064 0.535v0c0.038 0.014 0.066 0.048 0.071 0.088l0 0c0.033 0.242 0.147 0.472 0.28 0.696 0.133 0.225 0.287 0.449 0.401 0.708l0.077 0.188c0.024 0.064 0.048 0.129 0.071 0.193 0.045 0.128 0.086 0.255 0.128 0.381s0.083 0.252 0.128 0.375c0.022 0.062 0.045 0.123 0.069 0.184l0.018 0.046 0.008 0.022 0.010 0.023c0.013 0.030 0.026 0.062 0.039 0.091 0.052 0.116 0.111 0.235 0.173 0.35s0.126 0.232 0.191 0.347 0.265 0.464 0.387 0.706c0.122 0.242 0.231 0.495 0.304 0.764 0.066 0.241 0.099 0.498 0.078 0.753l0.128 0.064 0.008 0.062c0.019 0.149 0.022 0.292 0.010 0.44z"></path>
<path d="M32.353 24.036c0.058 0.009 0.115 0.022 0.17 0.038-0 0.001-0.001 0.002-0.001 0.003s-0.001 0.003-0.001 0.004c-0.052-0.017-0.104-0.031-0.158-0.042-0.004-0.001-0.007-0.002-0.011-0.002z"></path>
<path d="M33.793 15.405c-0 0.002-0.001 0.004-0.001 0.007s-0 0.004-0.001 0.006c-0.007-0.014-0.013-0.028-0.019-0.042-0.019-0.045-0.036-0.093-0.036-0.143v-0.004c0 0.003 0 0.006 0 0.009 0.004 0.047 0.022 0.092 0.041 0.135 0.005 0.011 0.010 0.021 0.016 0.032z"></path>
</symbol>

</defs>
</svg>
