<svg aria-hidden="true" style="position: absolute; width: 0; height: 0; overflow: hidden;" version="1.1" xmlns="http://www.w3.org/2000/svg" xmlns:xlink="http://www.w3.org/1999/xlink">
<defs>
<symbol id="icon-discord" viewBox="0 0 32 32">
<path d="M26.963 0c1.875 0 3.387 1.516 3.476 3.3v28.7l-3.569-3.031-1.96-1.784-2.139-1.864 0.893 2.94h-18.717c-1.869 0-3.387-1.42-3.387-3.301v-21.653c0-1.784 1.52-3.303 3.393-3.303h22zM18.805 7.577h-0.040l-0.269 0.267c2.764 0.8 4.101 2.049 4.101 2.049-1.781-0.891-3.387-1.336-4.992-1.516-1.16-0.18-2.32-0.085-3.3 0h-0.267c-0.627 0-1.96 0.267-3.747 0.98-0.623 0.271-0.98 0.448-0.98 0.448s1.336-1.336 4.28-2.049l-0.18-0.18c0 0-2.229-0.085-4.636 1.693 0 0-2.407 4.192-2.407 9.36 0 0 1.333 2.32 4.991 2.408 0 0 0.533-0.711 1.073-1.336-2.053-0.624-2.853-1.872-2.853-1.872s0.179 0.088 0.447 0.267h0.080c0.040 0 0.059 0.020 0.080 0.040v0.008c0.021 0.021 0.040 0.040 0.080 0.040 0.44 0.181 0.88 0.36 1.24 0.533 0.621 0.269 1.42 0.537 2.4 0.715 1.24 0.18 2.661 0.267 4.28 0 0.8-0.18 1.6-0.356 2.4-0.713 0.52-0.267 1.16-0.533 1.863-0.983 0 0-0.8 1.248-2.94 1.872 0.44 0.621 1.060 1.333 1.060 1.333 3.659-0.080 5.080-2.4 5.16-2.301 0-5.16-2.42-9.36-2.42-9.36-2.18-1.619-4.22-1.68-4.58-1.68zM19.029 13.461c0.937 0 1.693 0.8 1.693 1.78 0 0.987-0.76 1.787-1.693 1.787s-1.693-0.8-1.693-1.779c0.003-0.987 0.764-1.784 1.693-1.788zM12.972 13.461c0.933 0 1.688 0.8 1.688 1.78 0 0.987-0.76 1.787-1.693 1.787s-1.693-0.8-1.693-1.779c0-0.987 0.76-1.784 1.699-1.788z"></path>
</symbol>

<symbol id="icon-telegram" viewBox="0 0 32 32">
<path d="M16 0c-8.838 0-16 7.162-16 16s7.162 16 16 16 16-7.163 16-16-7.163-16-16-16zM23.863 10.969l-2.625 12.369c-0.181 0.881-0.712 1.087-1.45 0.681l-4-2.956-1.919 1.869c-0.225 0.219-0.4 0.4-0.8 0.4-0.519 0-0.431-0.194-0.606-0.688l-1.363-4.475-3.956-1.231c-0.856-0.262-0.862-0.85 0.194-1.269l15.412-5.95c0.7-0.319 1.381 0.169 1.113 1.25z"></path>
</symbol>

<symbol id="icon-cat" viewBox="0 0 42 32">
<path d="M33.736 15.236c-0-0.001-0-0.002-0-0.003v-0.004c0 0.002 0 0.004 0 0.007z"></path>
<path d="M33.736 15.233v-0.004c0 0.002 0 0.004 0 0.007-0-0.001-0-0.002-0-0.003z"></path>
<path d="M41.727 29.262c-0.002 0.037-0.008 0.074-0.013 0.111-0.007 0.036-0.015 0.079-0.023 0.111-0.017 0.069-0.037 0.141-0.060 0.209-0.047 0.138-0.109 0.276-0.201 0.401-0.091 0.124-0.221 0.236-0.377 0.291-0.156 0.057-0.322 0.055-0.47 0.026-0.046-0.009-0.067-0.015-0.109-0.026-0.039-0.011-0.075-0.023-0.111-0.038-0.072-0.029-0.144-0.069-0.208-0.122s-0.117-0.119-0.158-0.189c-0.041-0.070-0.068-0.143-0.090-0.214-0.043-0.143-0.065-0.28-0.095-0.411-0.015-0.066-0.031-0.13-0.050-0.192-0.018-0.061-0.043-0.125-0.066-0.191-0.023-0.064-0.048-0.126-0.072-0.189l-0.079-0.188c-0.108-0.25-0.229-0.495-0.357-0.736-0.256-0.482-0.542-0.952-0.869-1.387-0.082-0.11-0.166-0.213-0.259-0.306-0.094-0.094-0.196-0.18-0.305-0.259-0.217-0.157-0.458-0.284-0.708-0.389-0.501-0.212-1.038-0.337-1.57-0.483-0.133-0.037-0.265-0.073-0.399-0.106s-0.267-0.064-0.401-0.094c-0.269-0.061-0.539-0.121-0.805-0.201l-0.199-0.064c-0.064-0.023-0.13-0.049-0.193-0.079-0.126-0.058-0.248-0.124-0.369-0.19-0.19-0.104-0.382-0.209-0.589-0.276-0.030 0.101-0.056 0.204-0.080 0.306-0.060 0.262-0.103 0.525-0.103 0.787s0.042 0.517 0.145 0.754c0.101 0.226 0.276 0.441 0.427 0.678 0.076 0.119 0.148 0.247 0.2 0.387 0.051 0.136 0.081 0.284 0.081 0.432 0.004 0.025 0.007 0.050 0.007 0.076-0.001 0.031-0.004 0.063-0.012 0.094s-0.020 0.060-0.035 0.087c-0.013 0.023-0.027 0.043-0.043 0.063-0.307 0.444-0.638 0.863-0.988 1.268-0.352 0.404-0.725 0.791-1.131 1.146-0.406 0.353-0.845 0.678-1.339 0.917-0.248 0.117-0.511 0.212-0.787 0.259-0.034 0.007-0.069 0.012-0.104 0.015s-0.070 0.008-0.105 0.010-0.144 0.006-0.206 0.007c-0.126 0.004-0.261 0.013-0.393 0.021-0.266 0.015-0.535 0.030-0.809 0.018-0.138-0.008-0.276-0.017-0.427-0.064-0.038-0.012-0.076-0.028-0.117-0.053l-0.015-0.010-0.007-0.005c0.001 0.001-0.010-0.007-0.011-0.008l-0.019-0.016c-0.011-0.009-0.029-0.025-0.045-0.041-0.061-0.061-0.106-0.132-0.135-0.212-0.059-0.159-0.043-0.327 0.004-0.471 0.048-0.145 0.128-0.274 0.226-0.384 0.1-0.111 0.215-0.201 0.355-0.269 0.075-0.036 0.16-0.053 0.236-0.057 0.077-0.005 0.149 0 0.218 0.006 0.136 0.013 0.263 0.031 0.369 0.015 0.013-0.002 0.026-0.004 0.038-0.007 0.006-0.002 0.013-0.003 0.018-0.005l0.014-0.004c0.001-0.001 0.001-0.001 0.002-0.001 0.014-0.006 0.033-0.012 0.043-0.017s0.020-0.009 0.032-0.016c0.046-0.025 0.088-0.058 0.13-0.101s0.085-0.091 0.134-0.142c0.024-0.025 0.049-0.051 0.076-0.076s0.056-0.049 0.081-0.070c0.103-0.085 0.204-0.169 0.304-0.255 0.2-0.171 0.396-0.348 0.581-0.532 0.093-0.092 0.182-0.187 0.27-0.284 0.084-0.095 0.167-0.195 0.212-0.293s0.043-0.179-0.006-0.282c-0.048-0.101-0.128-0.203-0.21-0.302-0.041-0.049-0.085-0.101-0.127-0.146-0.045-0.048-0.090-0.099-0.135-0.146-0.089-0.092-0.183-0.183-0.279-0.273-0.192-0.18-0.392-0.354-0.589-0.535s-0.389-0.366-0.581-0.549c-0.382-0.365-0.769-0.724-1.239-0.918-0.233-0.099-0.483-0.159-0.738-0.192-0.129-0.018-0.254-0.024-0.39-0.032-0.131-0.007-0.268-0.019-0.403-0.034-0.536-0.059-1.061-0.172-1.58-0.277-0.26-0.053-0.519-0.103-0.779-0.144l-0.195-0.029-0.194-0.024-0.198-0.020-0.196-0.016c-0.525-0.040-1.057-0.053-1.591-0.090-0.473-0.034-0.95-0.084-1.419-0.196-0.052 0.199-0.086 0.402-0.104 0.607-0.028 0.322-0.014 0.648 0.028 0.971 0.084 0.647 0.28 1.28 0.484 1.91l0.077 0.238c0.025 0.082 0.047 0.164 0.068 0.246 0.042 0.164 0.077 0.329 0.108 0.494 0.061 0.331 0.103 0.666 0.119 1.004 0.014 0.338 0.005 0.681-0.071 1.021-0.039 0.169-0.096 0.339-0.189 0.496-0.047 0.078-0.104 0.152-0.171 0.218-0.065 0.063-0.141 0.117-0.223 0.157l-0.197 0.135-0.034 0c-0.14 0.001-0.292 0.031-0.443 0.062s-0.306 0.067-0.466 0.093c-0.16 0.025-0.326 0.043-0.5 0.020-0.087-0.012-0.176-0.036-0.259-0.081s-0.157-0.11-0.211-0.186c-0.015-0.019-0.026-0.038-0.038-0.058l-0.017-0.030-0.014-0.031-0.012-0.027c-0.004-0.009-0.009-0.023-0.013-0.034-0.009-0.023-0.017-0.047-0.021-0.069-0.023-0.091-0.025-0.192-0.001-0.285s0.071-0.176 0.125-0.246c0.054-0.071 0.116-0.131 0.179-0.185 0.128-0.108 0.264-0.194 0.4-0.277 0.112-0.069 0.224-0.134 0.328-0.203-0.062-0.192-0.118-0.384-0.174-0.576l-0.192-0.649c-0.131-0.431-0.271-0.859-0.434-1.276s-0.35-0.825-0.587-1.198c-0.119-0.186-0.252-0.362-0.405-0.514s-0.328-0.279-0.523-0.353l-0.009-0.003-0.008-0.005c-0.307-0.184-0.616-0.365-0.947-0.464-0.166-0.050-0.342-0.084-0.519-0.123l-0.131-0.027c-0.042-0.008-0.085-0.015-0.127-0.021-0.084-0.010-0.164-0.015-0.235 0.003-0.071 0.016-0.145 0.055-0.225 0.098s-0.16 0.086-0.243 0.127c-0.021 0.010-0.040 0.020-0.063 0.031l-0.062 0.028c-0.044 0.019-0.088 0.037-0.132 0.053-0.088 0.032-0.177 0.061-0.266 0.085-0.358 0.097-0.721 0.136-1.070 0.205-0.175 0.034-0.346 0.076-0.511 0.133-0.082 0.029-0.164 0.061-0.242 0.098-0.020 0.009-0.039 0.019-0.058 0.029l-0.028 0.014-0.030 0.016-0.119 0.065c-0.151 0.088-0.3 0.185-0.444 0.289-0.144 0.105-0.284 0.216-0.421 0.33-0.274 0.23-0.539 0.474-0.808 0.716-0.135 0.121-0.27 0.24-0.411 0.359-0.137 0.113-0.288 0.228-0.44 0.328-0.304 0.205-0.625 0.378-0.944 0.547s-0.636 0.337-0.937 0.529c-0.149 0.098-0.295 0.197-0.433 0.309s-0.272 0.231-0.406 0.351c-0.267 0.241-0.531 0.488-0.804 0.727s-0.552 0.471-0.849 0.683c-0.297 0.211-0.612 0.404-0.957 0.54-0.173 0.067-0.354 0.118-0.541 0.139s-0.381 0.012-0.565-0.040c-0.184-0.051-0.355-0.143-0.503-0.261s-0.273-0.259-0.382-0.409l-0.002-0.003-0.002-0.003c-0.040-0.070-0.061-0.154-0.055-0.234s0.031-0.155 0.066-0.221c0.071-0.132 0.174-0.236 0.287-0.322s0.239-0.156 0.381-0.196c0.134-0.034 0.261-0.065 0.387-0.105s0.247-0.088 0.359-0.152c0.112-0.063 0.215-0.144 0.315-0.231s0.196-0.18 0.291-0.275l0.29-0.282c0.193-0.188 0.387-0.376 0.584-0.56l1.178-1.109c0.195-0.186 0.392-0.369 0.583-0.559 0.382-0.378 0.749-0.771 1.078-1.194 0.164-0.212 0.318-0.431 0.454-0.661 0.034-0.057 0.068-0.115 0.098-0.174l0.047-0.088 0.042-0.090c0.014-0.029 0.029-0.062 0.041-0.089 0.012-0.031 0.025-0.063 0.036-0.094 0.009-0.031 0.018-0.061 0.027-0.092 0.007-0.032 0.015-0.063 0.021-0.096 0.048-0.258 0.035-0.528 0.049-0.8 0.007-0.136 0.022-0.274 0.053-0.409 0.035-0.135 0.074-0.261 0.11-0.391l0.055-0.194 0.097-0.39 0.041-0.197c0.029-0.131 0.048-0.263 0.070-0.395 0.007-0.066 0.015-0.132 0.020-0.199l0.005-0.099c0-0.025 0-0.051-0.001-0.075-0.096-0.054-0.197-0.105-0.299-0.15-0.108-0.049-0.219-0.093-0.331-0.131s-0.227-0.069-0.343-0.091c-0.116-0.021-0.233-0.033-0.349-0.026-0.058 0.004-0.115 0.011-0.171 0.026-0.059 0.014-0.115 0.032-0.177 0.042-0.121 0.024-0.242 0.037-0.364 0.039-0.244 0.006-0.484-0.020-0.722-0.032-0.119-0.006-0.238-0.008-0.357-0.002s-0.24 0.015-0.361 0.014c-0.242-0-0.487-0.024-0.72-0.1-0.116-0.037-0.228-0.087-0.334-0.148s-0.205-0.131-0.3-0.206c-0.189-0.152-0.361-0.321-0.532-0.489l-0.044-0.043h0.036c-0.008-0.117 0.006-0.233 0.031-0.346 0.027-0.122 0.064-0.239 0.102-0.356s0.075-0.233 0.104-0.352c0.029-0.119 0.045-0.238 0.049-0.36 0.012-0.245 0.024-0.494 0.095-0.733 0.070-0.24 0.202-0.455 0.352-0.65 0.074-0.099 0.162-0.187 0.251-0.272l0.269-0.252c0.089-0.084 0.176-0.17 0.256-0.263s0.151-0.194 0.19-0.308c0.039-0.116 0.048-0.24 0.020-0.358s-0.085-0.228-0.143-0.335c-0.059-0.108-0.119-0.216-0.154-0.335s-0.042-0.246-0.016-0.367l0.002-0.009 0.007 0.007 0.070 0.073 0 0 0 0c0.015 0.022 0.030 0.043 0.047 0.062s0.037 0.037 0.057 0.054c0.021 0.016 0.042 0.032 0.064 0.046s0.045 0.026 0.069 0.038c0.095 0.046 0.197 0.074 0.298 0.102s0.204 0.054 0.302 0.096c0.048 0.021 0.095 0.046 0.138 0.076 0.009 0.006 0.017 0.013 0.025 0.020-0.006-0.008-0.013-0.016-0.019-0.024-0.054-0.070-0.105-0.143-0.15-0.22-0.054-0.092-0.099-0.19-0.124-0.294s-0.027-0.215 0.007-0.317c0.033-0.103 0.097-0.193 0.173-0.268l0.003-0.003 0.065 0.045 0.031 0.022 0.015 0.011 0.001 0.001 0.001 0.001c0 0.001 0.001-0.001 0.002 0.004-0.001 0.003-0.001 0.004-0.002 0.005 0.196 0.247 0.441 0.452 0.706 0.621 0.271 0.173 0.567 0.308 0.874 0.402s0.627 0.147 0.948 0.158c0.322 0.004 0.646 0.019 0.967 0.050 0.643 0.060 1.281 0.164 1.924 0.211 0.161 0.010 0.321 0.019 0.482 0.021 0.161 0.004 0.321 0.001 0.479-0.020 0.318-0.039 0.627-0.131 0.93-0.238s0.604-0.228 0.915-0.321c0.311-0.093 0.634-0.157 0.962-0.155 0.652 0.003 1.289 0.143 1.927 0.212 0.319 0.034 0.64 0.046 0.958 0.015 0.159-0.015 0.316-0.041 0.471-0.078 0.154-0.038 0.312-0.081 0.467-0.122 0.626-0.163 1.256-0.307 1.89-0.431 1.268-0.249 2.554-0.421 3.847-0.476 0.324-0.012 0.646-0.021 0.971-0.017 0.161 0.003 0.322 0.003 0.485 0.011 0.162 0.006 0.324 0.013 0.485 0.024 0.646 0.039 1.289 0.101 1.931 0.147 0.64 0.042 1.288 0.085 1.916-0.010 0.157-0.023 0.311-0.059 0.464-0.101 0.151-0.047 0.301-0.098 0.444-0.164 0.289-0.129 0.562-0.295 0.821-0.481 0.521-0.377 1.028-0.778 1.564-1.145 0.268-0.183 0.543-0.358 0.828-0.516 0.071-0.040 0.143-0.077 0.215-0.116l0.219-0.109 0.222-0.102 0.221-0.097c0.295-0.13 0.59-0.259 0.872-0.406 0.281-0.149 0.549-0.319 0.786-0.527s0.443-0.449 0.622-0.711c0.18-0.259 0.313-0.543 0.387-0.847s0.089-0.62 0.064-0.934c-0.026-0.315-0.089-0.627-0.167-0.937-0.156-0.621-0.371-1.233-0.495-1.877-0.061-0.321-0.099-0.651-0.084-0.984s0.083-0.665 0.213-0.974c0.063-0.154 0.145-0.304 0.231-0.441 0.087-0.142 0.18-0.276 0.282-0.407 0.202-0.261 0.439-0.5 0.71-0.694 0.27-0.196 0.574-0.344 0.892-0.443s0.651-0.144 0.977-0.162c0.089-0.003 0.177-0.001 0.269 0.020 0.091 0.021 0.188 0.063 0.262 0.142s0.111 0.182 0.122 0.276c0.011 0.095 0.003 0.186-0.012 0.272-0.032 0.173-0.093 0.33-0.162 0.482s-0.15 0.296-0.236 0.437c-0.087 0.14-0.18 0.276-0.283 0.408-0.026 0.033-0.053 0.065-0.081 0.097s-0.061 0.066-0.089 0.092c-0.059 0.057-0.111 0.111-0.164 0.17-0.21 0.231-0.384 0.491-0.453 0.784-0.071 0.292-0.041 0.606 0.017 0.916 0.029 0.156 0.066 0.309 0.105 0.467 0.038 0.155 0.075 0.317 0.106 0.477 0.063 0.32 0.11 0.644 0.135 0.971 0.024 0.327 0.027 0.655 0.005 0.983-0.045 0.655-0.201 1.305-0.468 1.907-0.264 0.603-0.636 1.154-1.065 1.647-0.109 0.123-0.215 0.244-0.339 0.36-0.12 0.114-0.244 0.219-0.368 0.324l-0.746 0.618c-0.493 0.412-0.971 0.841-1.39 1.32-0.417 0.477-0.778 1.011-0.975 1.605l-0.004 0.013-0.007 0.012c-0.019 0.031-0.032 0.071-0.039 0.116 0.017 0.034 0.037 0.068 0.057 0.101 0.053 0.086 0.11 0.17 0.169 0.251 0.119 0.164 0.245 0.323 0.37 0.482s0.252 0.318 0.375 0.479c0.061 0.081 0.122 0.163 0.179 0.248 0.029 0.043 0.056 0.086 0.081 0.133l0.069 0.137c0.18 0.369 0.306 0.76 0.414 1.152 0.054 0.196 0.102 0.394 0.152 0.59s0.1 0.391 0.157 0.584l0.021 0.072c0.006 0.021 0.016 0.047 0.023 0.071l0.024 0.072 0.026 0.068c0.035 0.091 0.076 0.182 0.12 0.271 0.088 0.178 0.192 0.348 0.306 0.511 0.229 0.326 0.5 0.623 0.795 0.892s0.615 0.512 0.952 0.725c0.337 0.213 0.693 0.398 1.064 0.535v0c0.038 0.014 0.066 0.048 0.071 0.088l0 0c0.033 0.242 0.147 0.472 0.28 0.696 0.133 0.225 0.287 0.449 0.401 0.708l0.077 0.188c0.024 0.064 0.048 0.129 0.071 0.193 0.045 0.128 0.086 0.255 0.128 0.381s0.083 0.252 0.128 0.375c0.022 0.062 0.045 0.123 0.069 0.184l0.018 0.046 0.008 0.022 0.010 0.023c0.013 0.030 0.026 0.062 0.039 0.091 0.052 0.116 0.111 0.235 0.173 0.35s0.126 0.232 0.191 0.347 0.265 0.464 0.387 0.706c0.122 0.242 0.231 0.495 0.304 0.764 0.066 0.241 0.099 0.498 0.078 0.753l0.128 0.064 0.008 0.062c0.019 0.149 0.022 0.292 0.010 0.44z"></path>
<path d="M32.353 24.036c0.058 0.009 0.115 0.022 0.17 0.038-0 0.001-0.001 0.002-0.001 0.003s-0.001 0.003-0.001 0.004c-0.052-0.017-0.104-0.031-0.158-0.042-0.004-0.001-0.007-0.002-0.011-0.002z"></path>
<path d="M33.793 15.405c-0 0.002-0.001 0.004-0.001 0.007s-0 0.004-0.001 0.006c-0.007-0.014-0.013-0.028-0.019-0.042-0.019-0.045-0.036-0.093-0.036-0.143v-0.004c0 0.003 0 0.006 0 0.009 0.004 0.047 0.022 0.092 0.041 0.135 0.005 0.011 0.010 0.021 0.016 0.032z"></path>
</symbol>

<symbol id="icon-html" viewBox="0 0 32 32">
<path d="M6.792 0.031h1.439v1.422h1.317v-1.422h1.44v4.307h-1.44v-1.442h-1.317v1.442h-1.439v-4.307h-0zM12.881 1.46h-1.267v-1.428h3.975v1.428h-1.268v2.879h-1.44v-2.879h-0zM16.219 0.031h1.501l0.923 1.513 0.922-1.513h1.501v4.307h-1.434v-2.135l-0.99 1.531h-0.025l-0.991-1.531v2.135h-1.409v-4.307zM21.784 0.031h1.44v2.883h2.024v1.423h-3.464v-4.307zM4.687 6.308l2.059 23.096 9.24 2.565 9.266-2.569 2.061-23.092h-22.627zM23.018 11.789l-0.129 1.436-0.057 0.637h-10.84l0.259 2.9h10.323l-0.069 0.761-0.708 7.936-5.81 1.611-5.802-1.611-0.397-4.448h2.844l0.202 2.259 3.157 0.851 3.159-0.852 0.329-3.674h-9.817l-0.764-8.566h14.189l-0.068 0.76z"></path>
</symbol>

<symbol id="icon-css" viewBox="0 0 32 32">
<path d="M12.754 2.918v1.376h-3.519v-4.262h3.519v1.508h-2.011v1.378h2.011zM16.371 1.539h1.406v-1.508h-3.519c0 0 0 0.757 0 1.508 0.471 0.471 0.716 0.696 1.397 1.377-0.398 0-1.397 0.001-1.397 0.001v1.376h3.519v-1.376l-1.406-1.378zM21.359 1.539h1.406v-1.508h-3.519c0 0 0 0.757 0 1.508 0.471 0.471 0.716 0.696 1.397 1.377-0.398 0-1.397 0.001-1.397 0.001v1.376h3.519v-1.376l-1.406-1.378zM27.4 6.319l-2.138 23.155-9.262 2.494-9.262-2.494-2.137-23.155h22.799zM23.092 11.028h-14.327l0.346 2.796h7.267l-7.016 2.922 0.22 2.733 9.845 0.032-0.22 3.644-3.242 0.91-3.105-0.784-0.188-2.262h-2.901l0.377 4.367 5.854 1.728 5.813-1.697 0.754-8.671h-6.593l0.016-0.007 6.818-2.915 0.283-2.796z"></path>
</symbol>

<symbol id="icon-sass" viewBox="0 0 32 32">
<path fill="#c69" style="fill: var(--color1, #c69)" d="M16 0c8.836 0 16 7.164 16 16s-7.164 16-16 16-16-7.164-16-16 7.164-16 16-16zM12.82 21.331c0.233 0.86 0.208 1.664-0.032 2.389l-0.087 0.24c-0.032 0.081-0.069 0.16-0.104 0.235-0.187 0.387-0.435 0.747-0.74 1.080-0.931 1.012-2.229 1.396-2.787 1.073-0.6-0.349-0.301-1.78 0.779-2.92 1.161-1.224 2.827-2.012 2.827-2.012v-0.004zM26.035 6.849c-0.723-2.844-5.436-3.779-9.896-2.193-2.652 0.943-5.525 2.424-7.591 4.356-2.457 2.295-2.848 4.295-2.687 5.131 0.569 2.948 4.609 4.876 6.271 6.307v0.008c-0.489 0.24-4.075 2.039-4.915 3.9-0.9 1.96 0.14 3.361 0.82 3.54 2.1 0.581 4.26-0.48 5.42-2.199 1.12-1.681 1.021-3.841 0.539-4.901 0.661-0.18 1.44-0.26 2.44-0.139 2.801 0.32 3.361 2.080 3.24 2.8-0.12 0.719-0.697 1.139-0.899 1.259-0.2 0.121-0.26 0.16-0.241 0.241 0.020 0.12 0.121 0.12 0.28 0.1 0.22-0.040 1.461-0.6 1.521-1.961 0.060-1.72-1.581-3.639-4.5-3.6-1.2 0.021-1.961 0.121-2.5 0.341-0.040-0.060-0.081-0.1-0.14-0.14-1.8-1.94-5.14-3.3-5-5.88 0.040-0.94 0.38-3.419 6.4-6.419 4.94-2.461 8.881-1.78 9.561-0.28 0.977 2.139-2.101 6.12-7.241 6.699-1.96 0.22-2.98-0.539-3.241-0.82-0.279-0.3-0.319-0.32-0.419-0.259-0.16 0.080-0.060 0.34 0 0.5 0.16 0.4 0.78 1.1 1.861 1.46 0.939 0.3 3.24 0.479 6-0.6 3.099-1.199 5.519-4.54 4.819-7.34z"></path>
</symbol>

<symbol id="icon-javascript" viewBox="0 0 32 32">
<path fill="#f7df1e" style="fill: var(--color1, #f7df1e)" d="M0 0h32v32h-32zM29.379 24.368c-0.233-1.46-1.184-2.687-4.004-3.831-0.981-0.46-2.072-0.78-2.396-1.52-0.121-0.44-0.14-0.68-0.061-0.94 0.2-0.861 1.22-1.12 2.020-0.88 0.52 0.16 1 0.56 1.301 1.2 1.379-0.901 1.379-0.901 2.34-1.5-0.36-0.56-0.539-0.801-0.781-1.040-0.84-0.94-1.959-1.42-3.779-1.379l-0.94 0.119c-0.901 0.22-1.76 0.7-2.28 1.34-1.52 1.721-1.081 4.721 0.759 5.961 1.82 1.36 4.481 1.659 4.821 2.94 0.32 1.56-1.16 2.060-2.621 1.88-1.081-0.24-1.68-0.781-2.34-1.781l-2.44 1.401c0.28 0.64 0.6 0.919 1.080 1.479 2.32 2.341 8.12 2.221 9.161-1.339 0.039-0.12 0.32-0.94 0.099-2.2zM17.401 14.708h-2.997c0 2.584-0.012 5.152-0.012 7.74 0 1.643 0.084 3.151-0.184 3.615-0.44 0.919-1.573 0.801-2.088 0.64-0.528-0.261-0.796-0.621-1.107-1.14-0.084-0.14-0.147-0.261-0.169-0.261l-2.433 1.5c0.407 0.84 1 1.563 1.765 2.023 1.14 0.68 2.672 0.9 4.276 0.54 1.044-0.301 1.944-0.921 2.415-1.881 0.68-1.24 0.536-2.76 0.529-4.461 0.016-2.739 0-5.479 0-8.239z"></path>
</symbol>

<symbol id="icon-typescript" viewBox="0 0 32 32">
<path fill="#007acc" style="fill: var(--color1, #007acc)" d="M0 16v16h32v-32h-32zM25.788 14.725c0.813 0.203 1.432 0.564 2.001 1.153 0.295 0.315 0.732 0.888 0.767 1.027 0.011 0.040-1.381 0.973-2.224 1.497-0.031 0.020-0.153-0.112-0.289-0.315-0.413-0.6-0.844-0.859-1.504-0.904-0.971-0.067-1.595 0.441-1.589 1.289-0.001 0.015-0.001 0.032-0.001 0.050 0 0.201 0.051 0.391 0.14 0.557l-0.003-0.006c0.213 0.441 0.611 0.707 1.853 1.244 2.292 0.987 3.272 1.636 3.881 2.56 0.68 1.031 0.833 2.677 0.371 3.901-0.507 1.331-1.767 2.235-3.54 2.533-0.548 0.097-1.848 0.083-2.437-0.024-1.285-0.229-2.504-0.864-3.256-1.697-0.295-0.324-0.869-1.173-0.833-1.233 0.015-0.021 0.147-0.103 0.293-0.188 0.144-0.081 0.681-0.392 1.189-0.687l0.92-0.533 0.193 0.285c0.269 0.411 0.857 0.975 1.213 1.163 1.021 0.539 2.423 0.463 3.113-0.157 0.257-0.217 0.419-0.54 0.419-0.9 0-0.021-0.001-0.042-0.002-0.062l0 0.003c0-0.371-0.047-0.533-0.24-0.813-0.248-0.355-0.756-0.653-2.199-1.28-1.651-0.711-2.361-1.152-3.012-1.853-0.392-0.445-0.694-0.981-0.871-1.57l-0.008-0.030c-0.121-0.452-0.152-1.585-0.056-2.041 0.34-1.596 1.544-2.707 3.281-3.037 0.564-0.107 1.875-0.067 2.428 0.071zM18.276 16.061l0.011 1.311h-4.167v11.835h-2.947v-11.835h-4.163v-1.285c0-0.712 0.015-1.307 0.035-1.32 0.016-0.021 2.551-0.032 5.623-0.027l5.593 0.016z"></path>
</symbol>

<symbol id="icon-react" viewBox="0 0 32 32">
<path fill="#61dafb" style="fill: var(--color1, #61dafb)" d="M16 13.148c-1.575 0-2.852 1.277-2.852 2.852s1.277 2.852 2.852 2.852v0c1.575 0 2.852-1.277 2.852-2.852s-1.277-2.852-2.852-2.852v0zM8.011 21.673l-0.629-0.16c-4.691-1.185-7.381-3.197-7.381-5.519s2.691-4.333 7.381-5.519l0.629-0.159 0.177 0.624c0.545 1.86 1.163 3.443 1.899 4.957l-0.082-0.186 0.135 0.284-0.135 0.284c-0.656 1.329-1.275 2.912-1.761 4.551l-0.056 0.22zM7.089 11.933c-3.565 1.001-5.753 2.533-5.753 4.061 0 1.527 2.188 3.059 5.753 4.061 0.512-1.62 1.046-2.965 1.662-4.263l-0.086 0.202c-0.531-1.098-1.066-2.443-1.511-3.828l-0.065-0.234zM23.989 21.673l-0.177-0.625c-0.544-1.859-1.162-3.441-1.9-4.954l0.081 0.184-0.135-0.284 0.135-0.284c0.656-1.329 1.275-2.911 1.762-4.55l0.056-0.221 0.177-0.624 0.631 0.159c4.689 1.185 7.38 3.197 7.38 5.52s-2.691 4.333-7.38 5.519zM23.335 15.995c0.64 1.385 1.169 2.747 1.576 4.061 3.567-1.003 5.753-2.535 5.753-4.061 0-1.528-2.188-3.059-5.753-4.061-0.511 1.619-1.045 2.963-1.662 4.262l0.086-0.2zM7.080 11.927l-0.177-0.623c-1.319-4.648-0.919-7.979 1.097-9.141 1.977-1.141 5.152 0.207 8.479 3.621l0.453 0.465-0.453 0.465c-1.146 1.19-2.207 2.482-3.162 3.853l-0.068 0.103-0.18 0.257-0.313 0.027c-1.875 0.151-3.596 0.439-5.264 0.86l0.218-0.047zM9.608 3.087c-0.357 0-0.673 0.077-0.94 0.231-1.325 0.764-1.56 3.42-0.647 7.004 1.21-0.285 2.681-0.521 4.18-0.658l0.131-0.010c0.894-1.264 1.792-2.37 2.756-3.414l-0.020 0.022c-2.080-2.025-4.049-3.175-5.46-3.175zM22.393 30.236c-0.001 0-0.001 0 0 0-1.9 0-4.34-1.431-6.872-4.031l-0.453-0.465 0.453-0.465c1.146-1.19 2.206-2.482 3.16-3.854l0.068-0.103 0.18-0.257 0.312-0.027c1.875-0.15 3.597-0.438 5.267-0.858l-0.218 0.046 0.629-0.159 0.179 0.624c1.316 4.645 0.917 7.977-1.099 9.139-0.449 0.259-0.988 0.411-1.562 0.411-0.016 0-0.031-0-0.047-0l0.002 0zM16.932 25.728c2.080 2.025 4.049 3.175 5.46 3.175h0.001c0.356 0 0.673-0.077 0.939-0.231 1.325-0.764 1.561-3.421 0.647-7.005-1.212 0.286-2.682 0.522-4.182 0.658l-0.13 0.010c-0.893 1.265-1.791 2.371-2.755 3.416l0.020-0.022zM24.92 11.927l-0.629-0.159c-1.453-0.376-3.175-0.664-4.939-0.806l-0.111-0.007-0.312-0.027-0.18-0.257c-1.021-1.474-2.082-2.766-3.237-3.966l0.009 0.010-0.453-0.465 0.453-0.465c3.325-3.413 6.499-4.761 8.479-3.621 2.016 1.163 2.416 4.493 1.099 9.14zM19.667 9.653c1.523 0.139 2.969 0.364 4.312 0.668 0.915-3.584 0.679-6.24-0.647-7.004-1.317-0.761-3.793 0.405-6.4 2.944 0.943 1.022 1.841 2.128 2.666 3.289l0.069 0.103zM9.608 30.236c-0.014 0-0.030 0-0.046 0-0.574 0-1.113-0.152-1.577-0.419l0.015 0.008c-2.016-1.161-2.416-4.492-1.097-9.139l0.176-0.624 0.629 0.159c1.54 0.388 3.239 0.661 5.047 0.812l0.313 0.027 0.179 0.257c1.022 1.475 2.083 2.767 3.239 3.967l-0.010-0.010 0.453 0.465-0.453 0.465c-2.531 2.6-4.971 4.031-6.868 4.031zM8.021 21.667c-0.915 3.584-0.679 6.241 0.647 7.005 1.316 0.751 3.791-0.407 6.4-2.944-0.943-1.022-1.841-2.129-2.667-3.29l-0.069-0.103c-1.629-0.146-3.099-0.382-4.534-0.711l0.224 0.043zM16 22.504c-1.097 0-2.225-0.048-3.355-0.141l-0.313-0.027-0.18-0.257c-0.544-0.768-1.139-1.691-1.697-2.639l-0.103-0.19c-0.452-0.758-0.971-1.732-1.45-2.728l-0.105-0.243-0.133-0.284 0.133-0.284c0.584-1.239 1.102-2.212 1.658-3.161l-0.103 0.191c0.552-0.955 1.159-1.907 1.8-2.829l0.18-0.257 0.313-0.027c1.005-0.090 2.174-0.142 3.355-0.142s2.35 0.052 3.505 0.153l-0.15-0.011 0.312 0.027 0.179 0.257c1.177 1.666 2.294 3.567 3.252 5.56l0.104 0.24 0.135 0.284-0.135 0.284c-1.058 2.232-2.176 4.133-3.439 5.925l0.083-0.125-0.179 0.257-0.312 0.027c-1.129 0.093-2.259 0.141-3.356 0.141zM13.071 21.059c1.973 0.148 3.885 0.148 5.86 0 1.004-1.445 1.978-3.104 2.827-4.836l0.101-0.228c-0.947-1.958-1.922-3.617-3.012-5.19l0.083 0.126c-0.877-0.071-1.898-0.111-2.929-0.111s-2.052 0.040-3.063 0.119l0.134-0.008c-1.008 1.447-1.983 3.106-2.83 4.84l-0.099 0.224c0.951 1.96 1.926 3.619 3.014 5.193l-0.085-0.13z"></path>
</symbol>

<symbol id="icon-redux" viewBox="0 0 32 32">
<path fill="#764abc" style="fill: var(--color1, #764abc)" d="M22.177 22.005c1.159-0.1 2.057-1.12 1.999-2.339-0.061-1.219-1.060-2.197-2.277-2.197h-0.081c-1.257 0.041-2.237 1.099-2.197 2.359 0.040 0.639 0.301 1.159 0.659 1.537-1.397 2.717-3.495 4.715-6.672 6.393-2.137 1.117-4.395 1.539-6.592 1.239-1.837-0.259-3.275-1.080-4.155-2.397-1.317-1.999-1.437-4.155-0.34-6.312 0.801-1.559 1.999-2.697 2.799-3.257-0.2-0.519-0.44-1.397-0.56-2.056-5.915 4.236-5.313 10.028-3.516 12.765 1.339 1.997 4.076 3.275 7.072 3.275 0.799 0 1.639-0.059 2.457-0.259 5.195-0.999 9.129-4.115 11.387-8.709zM29.308 17.011c-3.095-3.636-7.651-5.633-12.845-5.633h-0.68c-0.337-0.739-1.116-1.199-1.996-1.199h-0.060c-1.257 0-2.237 1.080-2.196 2.337 0.040 1.197 1.059 2.197 2.277 2.197h0.099c0.9-0.040 1.679-0.6 1.997-1.399h0.74c3.079 0 5.993 0.899 8.651 2.656 2.036 1.339 3.496 3.096 4.315 5.195 0.717 1.717 0.679 3.396-0.060 4.796-1.139 2.196-3.057 3.356-5.593 3.356-1.599 0-3.156-0.5-3.956-0.859-0.479 0.397-1.279 1.057-1.859 1.457 1.757 0.797 3.536 1.257 5.253 1.257 3.896 0 6.791-2.196 7.891-4.315 1.197-2.397 1.099-6.432-1.959-9.888zM8.653 22.723c0.039 1.199 1.057 2.197 2.277 2.197h0.080c1.279-0.040 2.257-1.097 2.197-2.357 0-1.199-1.039-2.196-2.257-2.196h-0.081c-0.080 0-0.199 0-0.3 0.039-1.657-2.797-2.357-5.795-2.096-9.028 0.159-2.437 0.959-4.556 2.396-6.313 1.199-1.499 3.456-2.239 4.995-2.277 4.315-0.081 6.113 5.295 6.252 7.432l1.997 0.599c-0.46-6.552-4.533-9.989-8.429-9.989-3.656 0-7.031 2.657-8.391 6.553-1.857 5.195-0.639 10.188 1.639 14.184-0.199 0.26-0.319 0.719-0.279 1.157z"></path>
</symbol>

<symbol id="icon-node" viewBox="0 0 32 32">
<path fill="#393" style="fill: var(--color1, #393)" d="M15.997 32c-0.428 0-0.855-0.112-1.229-0.329l-3.915-2.316c-0.584-0.327-0.299-0.443-0.107-0.511 0.78-0.271 0.937-0.333 1.771-0.805 0.087-0.049 0.201-0.031 0.291 0.023l3.008 1.785c0.109 0.060 0.263 0.060 0.363 0l11.727-6.768c0.109-0.063 0.179-0.188 0.179-0.317v-13.533c0-0.132-0.071-0.256-0.183-0.323l-11.721-6.763c-0.108-0.063-0.252-0.063-0.361 0l-11.719 6.764c-0.113 0.065-0.185 0.193-0.185 0.321v13.533c0 0.129 0.072 0.252 0.185 0.313l3.212 1.856c1.743 0.872 2.811-0.155 2.811-1.187v-13.361c0-0.189 0.152-0.337 0.341-0.337h1.487c0.185 0 0.34 0.149 0.34 0.337v13.361c0 2.327-1.267 3.66-3.472 3.66-0.677 0-1.212 0-2.701-0.735l-3.077-1.769c-0.76-0.439-1.229-1.26-1.229-2.139v-13.533c0-0.879 0.471-1.7 1.229-2.137l11.727-6.776c0.743-0.42 1.728-0.42 2.464 0l11.725 6.776c0.76 0.439 1.232 1.259 1.232 2.137v13.533c0 0.879-0.472 1.697-1.232 2.139l-11.725 6.771c-0.373 0.217-0.799 0.329-1.233 0.329zM25.465 18.657c0-2.533-1.712-3.208-5.316-3.684-3.641-0.481-4.012-0.731-4.012-1.583 0-0.704 0.313-1.644 3.011-1.644 2.409 0 3.297 0.519 3.663 2.143 0.032 0.153 0.172 0.265 0.329 0.265h1.521c0.095 0 0.184-0.041 0.248-0.108 0.064-0.072 0.099-0.164 0.089-0.261-0.236-2.797-2.095-4.101-5.851-4.101-3.344 0-5.339 1.411-5.339 3.777 0 2.567 1.984 3.276 5.193 3.593 3.84 0.376 4.137 0.937 4.137 1.692 0 1.311-1.052 1.869-3.523 1.869-3.103 0-3.785-0.779-4.015-2.323-0.027-0.165-0.168-0.287-0.337-0.287h-1.516c-0.188 0-0.339 0.149-0.339 0.337 0 1.976 1.075 4.331 6.207 4.331 3.717 0.001 5.848-1.461 5.848-4.017z"></path>
</symbol>

<symbol id="icon-express" viewBox="0 0 32 32">
<path d="M32 24.784c-0.214 0.083-0.462 0.132-0.721 0.132-0.78 0-1.457-0.438-1.8-1.081l-0.005-0.011-4.6-6.361-0.667-0.889-5.337 7.259c-0.332 0.635-0.985 1.060-1.738 1.060-0.238 0-0.467-0.043-0.678-0.121l0.014 0.004 6.877-9.227-6.397-8.335c0.215-0.080 0.462-0.126 0.721-0.126 0.763 0 1.432 0.402 1.807 1.005l0.005 0.009 4.768 6.44 4.795-6.413c0.328-0.611 0.962-1.020 1.692-1.020 0.249 0 0.487 0.048 0.705 0.134l-0.013-0.005-2.483 3.295-3.363 4.377c-0.183 0.163-0.297 0.4-0.297 0.663s0.114 0.499 0.296 0.662l0.001 0.001 6.405 8.549zM0.003 15.435l0.56-2.767c1.539-5.471 7.811-7.747 12.125-4.36 2.527 1.985 3.157 4.796 3.033 7.964h-14.233c-0.231 5.657 3.852 9.073 9.072 7.328 1.711-0.629 2.998-2.045 3.435-3.797l0.008-0.037c0.276-0.888 0.731-1.040 1.565-0.784-0.297 2.251-1.593 4.148-3.42 5.258l-0.032 0.018c-1.159 0.646-2.541 1.026-4.013 1.026-2.219 0-4.235-0.864-5.732-2.274l0.004 0.004c-1.226-1.375-2.028-3.153-2.185-5.113l-0.002-0.031c0-0.313-0.107-0.607-0.179-0.888-0.006-0.441-0.009-0.962-0.009-1.484 0-0.022 0-0.043 0-0.065v0.003zM1.505 15.053h12.872c-0.080-4.101-2.668-7.011-6.12-7.037-3.843-0.053-6.592 2.792-6.761 7.019z"></path>
</symbol>

<symbol id="icon-mongodb" viewBox="0 0 32 32">
<path fill="#47a248" style="fill: var(--color1, #47a248)" d="M22.907 12.691c-1.684-7.413-5.656-9.849-6.083-10.781-0.469-0.657-0.977-1.909-0.977-1.909-0.003 0.025-0.005 0.041-0.007 0.065v0.017h-0.001c-0.003 0.020-0.004 0.033-0.005 0.052v0.020h-0.003c0 0.013-0.003 0.024-0.003 0.035v0.035h-0.004c-0.001 0.011-0.001 0.024-0.004 0.033v0.028h-0.003c0 0.009 0 0.020-0.003 0.028v0.027h-0.003c0 0.013-0.001 0.029-0.003 0.043v0.003c-0.004 0.023-0.008 0.045-0.012 0.067v0.011h-0.003c-0.001 0.005-0.004 0.011-0.004 0.016v0.023h-0.004v0.029h-0.007v0.024h-0.007v0.028h-0.005v0.025h-0.005v0.023h-0.008v0.019h-0.005v0.024h-0.005v0.019h-0.007v0.017h-0.004v0.020h-0.005c-0.001 0.001-0.001 0.004-0.001 0.005v0.013h-0.004c-0.001 0.003-0.001 0.005-0.001 0.008v0.008h-0.003c-0.001 0.004-0.003 0.011-0.003 0.013-0.004 0.009-0.009 0.019-0.013 0.028v0.003c-0.003 0.003-0.005 0.007-0.007 0.009v0.011h-0.005v0.011h-0.007v0.011h-0.004v0.013h-0.008v0.019h-0.005v0.005h-0.005v0.011h-0.005v0.015h-0.005v0.011h-0.008v0.015h-0.005v0.011h-0.007v0.011h-0.004v0.013h-0.007v0.011h-0.005v0.008h-0.005v0.011h-0.008v0.012h-0.005v0.008h-0.007v0.011h-0.005v0.015h-0.007v0.005h-0.004v0.011h-0.008v0.005h-0.005v0.013h-0.005v0.005h-0.005v0.011h-0.007v0.008h-0.004l-0.003 0.005v0.005h-0.003c-0.001 0.003-0.003 0.003-0.003 0.005v0.001h-0.001c-0.001 0.004-0.003 0.007-0.005 0.009v0.004h-0.001c-0.007 0.008-0.011 0.016-0.016 0.024v0.001c-0.003 0.003-0.009 0.008-0.012 0.013v0.003h-0.001c-0.001 0.001-0.004 0.003-0.004 0.004v0.004h-0.003l-0.004 0.004v0.001h-0.001c0 0.001-0.003 0.003-0.004 0.005v0.005h-0.004l-0.003 0.003v0.003h-0.003c0 0.003-0.003 0.003-0.003 0.004v0.004h-0.005c0 0.001-0.001 0.003-0.003 0.004v0.008h-0.004v0.005h-0.005v0.008h-0.005v0.011h-0.007v-0.011h-0.007v0.005h-0.005v0.008h-0.007v0.011h-0.007v0.005h-0.005v0.008h-0.005v0.005h-0.005v0.011h-0.008v0.005h-0.005v0.008h-0.007v0.005h-0.005v0.007h-0.007v0.013h-0.003v0.005h-0.008v0.007h-0.005v0.003h-0.005v0.005h-0.007v0.013h-0.005v0.005h-0.007v0.005h-0.005v0.008h-0.007v0.005h-0.007v0.005h-0.005v0.005h-0.005v0.013h-0.005v0.007h-0.008v0.005h-0.005v0.005h-0.007v0.008h-0.005v0.005h-0.007v0.009h-0.005v0.005h-0.008v0.008h-0.003v0.005h-0.005v0.005h-0.007v0.005h-0.005v0.008h-0.007v0.005h-0.004c-0.001 0.001-0.001 0.003-0.001 0.003v0.003h-0.003l-0.005 0.005c0 0-0.003 0.003-0.005 0.004v0.008h-0.005v0.007h-0.005v0.005h-0.005v0.005h-0.004l-0.004 0.004v0.004h-0.003l-0.003 0.003v0.004h-0.003c-0.007 0.008-0.009 0.013-0.019 0.021-0.003 0.003-0.011 0.009-0.016 0.013-0.016 0.011-0.036 0.028-0.052 0.043-0.011 0.007-0.021 0.016-0.029 0.023v0.001h-0.001c-0.021 0.017-0.041 0.033-0.065 0.052v0.001c-0.032 0.027-0.063 0.052-0.099 0.083v-0.001h-0.003c-0.076 0.063-0.156 0.133-0.248 0.212v0.001h-0.001c-0.225 0.197-0.493 0.451-0.793 0.757l-0.025 0.025c-1.813 1.876-4.671 5.785-4.972 12.103-0.027 0.523-0.021 1.031 0.008 1.525v0.012c0.145 2.489 0.927 4.615 1.904 6.341v0.001c0.389 0.688 0.809 1.313 1.235 1.873v0.001c1.469 1.94 2.969 3.089 3.352 3.368 0.588 1.364 0.533 3.705 0.533 3.705l0.859 0.287c0 0-0.175-2.268 0.071-3.363 0.076-0.343 0.256-0.635 0.465-0.883 0.141-0.1 0.56-0.401 1.063-0.86 0.024-0.025 0.037-0.048 0.059-0.072 2.028-1.891 5.816-6.547 4.517-14.132z"></path>
</symbol>

</defs>
</svg>
